<mxfile host="app.diagrams.net" modified="2021-04-16T03:57:28.177Z" agent="5.0 (Windows NT 10.0; Win64; x64) AppleWebKit/537.36 (KHTML, like Gecko) Chrome/89.0.4389.82 Safari/537.36" etag="deTXfS_POsEhSp-HpHyb" version="14.6.0" type="github">
  <diagram id="VEV3Uc24vwXsZR_ko1ef" name="Page-1">
    <mxGraphModel dx="1422" dy="762" grid="1" gridSize="10" guides="1" tooltips="1" connect="1" arrows="1" fold="1" page="1" pageScale="1" pageWidth="850" pageHeight="1100" math="0" shadow="0">
      <root>
        <mxCell id="0" />
        <mxCell id="1" parent="0" />
        <mxCell id="QWQkXZekbUVryVGH4yMC-1" value="" style="edgeStyle=orthogonalEdgeStyle;rounded=0;orthogonalLoop=1;jettySize=auto;html=1;" edge="1" parent="1" source="QWQkXZekbUVryVGH4yMC-2" target="QWQkXZekbUVryVGH4yMC-11">
          <mxGeometry relative="1" as="geometry" />
        </mxCell>
        <mxCell id="QWQkXZekbUVryVGH4yMC-2" value="User" style="rounded=1;whiteSpace=wrap;html=1;" vertex="1" parent="1">
          <mxGeometry x="50" y="90" width="120" height="60" as="geometry" />
        </mxCell>
        <mxCell id="QWQkXZekbUVryVGH4yMC-3" style="edgeStyle=orthogonalEdgeStyle;rounded=0;orthogonalLoop=1;jettySize=auto;html=1;entryX=0.5;entryY=0;entryDx=0;entryDy=0;" edge="1" parent="1" source="QWQkXZekbUVryVGH4yMC-4" target="QWQkXZekbUVryVGH4yMC-11">
          <mxGeometry relative="1" as="geometry" />
        </mxCell>
        <mxCell id="QWQkXZekbUVryVGH4yMC-4" value="User" style="rounded=1;whiteSpace=wrap;html=1;" vertex="1" parent="1">
          <mxGeometry x="50" y="180" width="120" height="60" as="geometry" />
        </mxCell>
        <mxCell id="QWQkXZekbUVryVGH4yMC-5" style="edgeStyle=orthogonalEdgeStyle;rounded=0;orthogonalLoop=1;jettySize=auto;html=1;entryX=0.5;entryY=0;entryDx=0;entryDy=0;" edge="1" parent="1" source="QWQkXZekbUVryVGH4yMC-6" target="QWQkXZekbUVryVGH4yMC-11">
          <mxGeometry relative="1" as="geometry" />
        </mxCell>
        <mxCell id="QWQkXZekbUVryVGH4yMC-6" value="User" style="rounded=1;whiteSpace=wrap;html=1;" vertex="1" parent="1">
          <mxGeometry x="50" y="300" width="120" height="60" as="geometry" />
        </mxCell>
        <mxCell id="QWQkXZekbUVryVGH4yMC-7" value="..." style="text;html=1;strokeColor=none;fillColor=none;align=center;verticalAlign=middle;whiteSpace=wrap;rounded=0;rotation=-90;" vertex="1" parent="1">
          <mxGeometry x="90" y="260" width="40" height="20" as="geometry" />
        </mxCell>
        <mxCell id="QWQkXZekbUVryVGH4yMC-8" style="edgeStyle=orthogonalEdgeStyle;rounded=0;orthogonalLoop=1;jettySize=auto;html=1;entryX=0;entryY=0.5;entryDx=0;entryDy=0;" edge="1" parent="1" source="QWQkXZekbUVryVGH4yMC-11" target="QWQkXZekbUVryVGH4yMC-13">
          <mxGeometry relative="1" as="geometry" />
        </mxCell>
        <mxCell id="QWQkXZekbUVryVGH4yMC-9" style="edgeStyle=orthogonalEdgeStyle;rounded=0;orthogonalLoop=1;jettySize=auto;html=1;entryX=0;entryY=0.5;entryDx=0;entryDy=0;" edge="1" parent="1" source="QWQkXZekbUVryVGH4yMC-11" target="QWQkXZekbUVryVGH4yMC-15">
          <mxGeometry relative="1" as="geometry" />
        </mxCell>
        <mxCell id="QWQkXZekbUVryVGH4yMC-10" style="edgeStyle=orthogonalEdgeStyle;rounded=0;orthogonalLoop=1;jettySize=auto;html=1;entryX=0;entryY=0.5;entryDx=0;entryDy=0;" edge="1" parent="1" source="QWQkXZekbUVryVGH4yMC-11" target="QWQkXZekbUVryVGH4yMC-17">
          <mxGeometry relative="1" as="geometry" />
        </mxCell>
        <mxCell id="QWQkXZekbUVryVGH4yMC-11" value="LB" style="rounded=1;whiteSpace=wrap;html=1;rotation=-90;" vertex="1" parent="1">
          <mxGeometry x="125" y="195" width="270" height="60" as="geometry" />
        </mxCell>
        <mxCell id="QWQkXZekbUVryVGH4yMC-12" value="" style="edgeStyle=orthogonalEdgeStyle;rounded=0;orthogonalLoop=1;jettySize=auto;html=1;" edge="1" parent="1" source="QWQkXZekbUVryVGH4yMC-13" target="QWQkXZekbUVryVGH4yMC-22">
          <mxGeometry relative="1" as="geometry" />
        </mxCell>
        <mxCell id="QWQkXZekbUVryVGH4yMC-13" value="Web Server" style="rounded=1;whiteSpace=wrap;html=1;" vertex="1" parent="1">
          <mxGeometry x="340" y="90" width="120" height="60" as="geometry" />
        </mxCell>
        <mxCell id="QWQkXZekbUVryVGH4yMC-14" style="edgeStyle=orthogonalEdgeStyle;rounded=0;orthogonalLoop=1;jettySize=auto;html=1;" edge="1" parent="1" source="QWQkXZekbUVryVGH4yMC-15" target="QWQkXZekbUVryVGH4yMC-22">
          <mxGeometry relative="1" as="geometry" />
        </mxCell>
        <mxCell id="QWQkXZekbUVryVGH4yMC-15" value="Web Server" style="rounded=1;whiteSpace=wrap;html=1;" vertex="1" parent="1">
          <mxGeometry x="340" y="180" width="120" height="60" as="geometry" />
        </mxCell>
        <mxCell id="QWQkXZekbUVryVGH4yMC-16" style="edgeStyle=orthogonalEdgeStyle;rounded=0;orthogonalLoop=1;jettySize=auto;html=1;entryX=0.5;entryY=0;entryDx=0;entryDy=0;" edge="1" parent="1" source="QWQkXZekbUVryVGH4yMC-17" target="QWQkXZekbUVryVGH4yMC-22">
          <mxGeometry relative="1" as="geometry" />
        </mxCell>
        <mxCell id="QWQkXZekbUVryVGH4yMC-17" value="Web Server" style="rounded=1;whiteSpace=wrap;html=1;" vertex="1" parent="1">
          <mxGeometry x="340" y="300" width="120" height="60" as="geometry" />
        </mxCell>
        <mxCell id="QWQkXZekbUVryVGH4yMC-18" value="..." style="text;html=1;strokeColor=none;fillColor=none;align=center;verticalAlign=middle;whiteSpace=wrap;rounded=0;rotation=-90;" vertex="1" parent="1">
          <mxGeometry x="380" y="260" width="40" height="20" as="geometry" />
        </mxCell>
        <mxCell id="QWQkXZekbUVryVGH4yMC-19" style="edgeStyle=orthogonalEdgeStyle;rounded=0;orthogonalLoop=1;jettySize=auto;html=1;entryX=0;entryY=0.5;entryDx=0;entryDy=0;" edge="1" parent="1" source="QWQkXZekbUVryVGH4yMC-22" target="QWQkXZekbUVryVGH4yMC-23">
          <mxGeometry relative="1" as="geometry" />
        </mxCell>
        <mxCell id="QWQkXZekbUVryVGH4yMC-20" style="edgeStyle=orthogonalEdgeStyle;rounded=0;orthogonalLoop=1;jettySize=auto;html=1;entryX=0;entryY=0.5;entryDx=0;entryDy=0;" edge="1" parent="1" source="QWQkXZekbUVryVGH4yMC-22" target="QWQkXZekbUVryVGH4yMC-24">
          <mxGeometry relative="1" as="geometry" />
        </mxCell>
        <mxCell id="QWQkXZekbUVryVGH4yMC-21" style="edgeStyle=orthogonalEdgeStyle;rounded=0;orthogonalLoop=1;jettySize=auto;html=1;entryX=0;entryY=0.5;entryDx=0;entryDy=0;" edge="1" parent="1" source="QWQkXZekbUVryVGH4yMC-22" target="QWQkXZekbUVryVGH4yMC-25">
          <mxGeometry relative="1" as="geometry" />
        </mxCell>
        <mxCell id="QWQkXZekbUVryVGH4yMC-22" value="LB" style="rounded=1;whiteSpace=wrap;html=1;rotation=-90;" vertex="1" parent="1">
          <mxGeometry x="410" y="195" width="270" height="60" as="geometry" />
        </mxCell>
        <mxCell id="QWQkXZekbUVryVGH4yMC-23" value="APP Server" style="rounded=1;whiteSpace=wrap;html=1;" vertex="1" parent="1">
          <mxGeometry x="625" y="90" width="120" height="60" as="geometry" />
        </mxCell>
        <mxCell id="QWQkXZekbUVryVGH4yMC-24" value="APP Server" style="rounded=1;whiteSpace=wrap;html=1;" vertex="1" parent="1">
          <mxGeometry x="625" y="180" width="120" height="60" as="geometry" />
        </mxCell>
        <mxCell id="QWQkXZekbUVryVGH4yMC-25" value="APP Server" style="rounded=1;whiteSpace=wrap;html=1;" vertex="1" parent="1">
          <mxGeometry x="625" y="300" width="120" height="60" as="geometry" />
        </mxCell>
        <mxCell id="QWQkXZekbUVryVGH4yMC-26" value="..." style="text;html=1;strokeColor=none;fillColor=none;align=center;verticalAlign=middle;whiteSpace=wrap;rounded=0;rotation=-90;" vertex="1" parent="1">
          <mxGeometry x="665" y="260" width="40" height="20" as="geometry" />
        </mxCell>
      </root>
    </mxGraphModel>
  </diagram>
</mxfile>
